<svg xmlns="http://www.w3.org/2000/svg" viewBox="0 0 405.21 155.27"><defs><style>.cls-1{fill:#353841;}.cls-2{fill:#e66e4e;}</style></defs><g id="Layer_8" data-name="Layer 8"><path class="cls-1" d="M100.42,102.06a3.5,3.5,0,0,0-2.87-1.49H74.75l-10-14.25L87.25,54.7h22.81a3.5,3.5,0,0,0,2.87-1.49L125.4,35.46A3.53,3.53,0,0,0,122.54,30h-50a3.49,3.49,0,0,0-2.86,1.48L32.54,84.3a3.5,3.5,0,0,0,0,4l25,35.48a3.48,3.48,0,0,0,2.88,1.51H110a3.53,3.53,0,0,0,2.87-5.51Zm7.83-54.36H92.08L99.7,37h16.1ZM74.35,37H91.12C87.69,41.79,62.07,78,60.41,80.3L52.12,68.61ZM39.69,86.31l8.15-11.62,30.94,43.63H62.24Zm47.67,32-7.62-10.75h16l7.56,10.75Z"/><path class="cls-2" d="M162.56,88.33l24.72-35.11a3.51,3.51,0,0,0,0-4L175,31.46A3.5,3.5,0,0,0,172.16,30H146.89A3.48,3.48,0,0,0,144,31.46L131.79,49.22a3.54,3.54,0,0,0,2.89,5.48h18l-7.33,10.76H122.17A3.5,3.5,0,0,0,119.3,67L107.13,84.3a3.49,3.49,0,0,0,0,4l24.78,35.52a3.5,3.5,0,0,0,2.87,1.49h24.8a3.53,3.53,0,0,0,2.87-5.5l-21-30H159.7A3.5,3.5,0,0,0,162.56,88.33ZM141.33,47.7,148.73,37H165.3L157.51,47.7Zm11.52,70.62H136.59l-22.33-32L124,72.46h16.36l-8.51,11.8h0a3.53,3.53,0,0,0,0,4ZM141.52,82.81c3.65-5.06,28-39.79,30.57-43.3l8.06,11.67L157.88,82.81Z"/><path class="cls-1" d="M219.82,53.67c0-8.7,6.68-14.92,15.67-14.92,5,0,9.15,1.81,11.87,5.11l-4.29,4a9.27,9.27,0,0,0-7.25-3.38,8.85,8.85,0,0,0-9.24,9.23,8.85,8.85,0,0,0,9.24,9.23,9.19,9.19,0,0,0,7.25-3.42l4.29,4c-2.72,3.34-6.89,5.15-11.92,5.15C226.5,68.59,219.82,62.37,219.82,53.67Z"/><path class="cls-1" d="M283.88,49.71c0,6.43-4.82,10.43-12.53,10.43h-5.81v8h-6.68V39.24h12.49C279.06,39.24,283.88,43.24,283.88,49.71Zm-6.76,0c0-3.17-2.06-5-6.14-5h-5.44v10H271C275.06,54.7,277.12,52.85,277.12,49.71Z"/><path class="cls-1" d="M313.2,61.91H299.8l-2.56,6.19H290.4l12.86-28.86h6.6l12.9,28.86h-7Zm-2.11-5.07-4.57-11-4.58,11Z"/><path class="cls-2" d="M332.08,64.39a4,4,0,0,1,8,0,4,4,0,1,1-8,0Z"/><path class="cls-1" d="M238.21,116.4l-5.57-8H226.5v8h-6.68V87.54h12.49c7.71,0,12.53,4,12.53,10.47a9.37,9.37,0,0,1-5.93,9.11l6.47,9.28ZM231.94,93H226.5V103h5.44c4.08,0,6.14-1.89,6.14-5S236,93,231.94,93Z"/><path class="cls-1" d="M255,105.31c0-6.68,5.15-11.42,12.2-11.42s12.16,4.74,12.16,11.42-5.11,11.42-12.16,11.42S255,112,255,105.31Zm17.85,0c0-3.83-2.43-6.14-5.65-6.14s-5.69,2.31-5.69,6.14,2.47,6.14,5.69,6.14S272.88,109.14,272.88,105.31Z"/><path class="cls-1" d="M289,105.31c0-6.68,5.15-11.42,12.37-11.42,4.66,0,8.32,2,9.93,5.65l-5,2.68a5.52,5.52,0,0,0-5-3c-3.26,0-5.82,2.26-5.82,6.14s2.56,6.14,5.82,6.14a5.45,5.45,0,0,0,5-3l5,2.72c-1.61,3.55-5.27,5.61-9.93,5.61C294.19,116.73,289,112,289,105.31Z"/><path class="cls-1" d="M331.42,107.7l-3.09,3v5.65H321.9V85.81h6.43v17.31l9.4-8.9h7.66l-9.23,9.4,10.06,12.78h-7.79Z"/><path class="cls-1" d="M353.23,114.34l2.14-4.62a15.16,15.16,0,0,0,7.71,2.14c3,0,4.08-.78,4.08-2,0-3.62-13.39.09-13.39-8.78,0-4.2,3.79-7.17,10.26-7.17a18.18,18.18,0,0,1,8.53,1.94l-2.14,4.57A12.78,12.78,0,0,0,364,98.76c-2.88,0-4.12.9-4.12,2.06,0,3.79,13.4.12,13.4,8.86,0,4.12-3.84,7-10.47,7A19,19,0,0,1,353.23,114.34Z"/></g></svg>